<?xml version="1.0" encoding="UTF-8" standalone="no"?>
<svg
   xmlns:dc="http://purl.org/dc/elements/1.1/"
   xmlns:cc="http://creativecommons.org/ns#"
   xmlns:rdf="http://www.w3.org/1999/02/22-rdf-syntax-ns#"
   xmlns:svg="http://www.w3.org/2000/svg"
   xmlns="http://www.w3.org/2000/svg"
   xmlns:sodipodi="http://sodipodi.sourceforge.net/DTD/sodipodi-0.dtd"
   xmlns:inkscape="http://www.inkscape.org/namespaces/inkscape"
   width="151.47916"
   height="151.48439"
   viewBox="0 0 40.078862 40.080245"
   version="1.1"
   id="svg8"
   inkscape:version="1.0.2 (e86c870879, 2021-01-15)"
   sodipodi:docname="botonPlayVideo.svg">
  <defs
     id="defs2" />
  <sodipodi:namedview
     id="base"
     pagecolor="#ffffff"
     bordercolor="#666666"
     borderopacity="1.0"
     inkscape:pageopacity="0.0"
     inkscape:pageshadow="2"
     inkscape:zoom="0.35"
     inkscape:cx="170.02529"
     inkscape:cy="330.0279"
     inkscape:document-units="mm"
     inkscape:current-layer="layer1"
     inkscape:document-rotation="0"
     showgrid="false"
     units="px"
     inkscape:window-width="1366"
     inkscape:window-height="728"
     inkscape:window-x="0"
     inkscape:window-y="0"
     inkscape:window-maximized="1" />
  <metadata
     id="metadata5">
    <rdf:RDF>
      <cc:Work
         rdf:about="">
        <dc:format>image/svg+xml</dc:format>
        <dc:type
           rdf:resource="http://purl.org/dc/dcmitype/StillImage" />
        <dc:title></dc:title>
      </cc:Work>
    </rdf:RDF>
  </metadata>
  <g
     inkscape:label="Capa 1"
     inkscape:groupmode="layer"
     id="layer1"
     transform="translate(-60.847475,-60.846784)">
    <g
       id="g32102"
       transform="matrix(0.35277777,0,0,0.35277777,-27.211921,-348.64414)">
      <path
         style="fill:none;stroke:#5161ca;stroke-width:1;stroke-linecap:butt;stroke-linejoin:miter;stroke-miterlimit:10;stroke-opacity:1"
         d="m 296.82422,1231.0039 v -26.1367 l 19.30469,13.0664 z m 0,0"
         id="path24349" />
      <path
         style="fill:none;stroke:#5161ca;stroke-width:1;stroke-linecap:butt;stroke-linejoin:miter;stroke-miterlimit:10;stroke-opacity:1"
         d="m 344.42578,1217.5703 c 0,20.9883 -17.01562,38 -38.00391,38 -20.98828,0 -38.0039,-17.0117 -38.0039,-38 0,-20.9922 17.01562,-38.0078 38.0039,-38.0078 20.98829,0 38.00391,17.0156 38.00391,38.0078 z m 0,0"
         id="path24351" />
      <g
         id="g32084">
        <path
           style="fill:none;stroke:#8285ae;stroke-width:1;stroke-linecap:butt;stroke-linejoin:miter;stroke-miterlimit:10;stroke-opacity:1"
           d="m 362.72656,1217.5703 c 0,31.0938 -25.20703,56.3047 -56.30469,56.3047 -31.09765,0 -56.30468,-25.2109 -56.30468,-56.3047 0,-31.0976 25.20703,-56.3086 56.30468,-56.3086 31.09766,0 56.30469,25.211 56.30469,56.3086 z m 0,0"
           id="path24353" />
      </g>
    </g>
  </g>
</svg>
